<?xml version="1.0" standalone="no"?><!DOCTYPE svg PUBLIC "-//W3C//DTD SVG 1.1//EN" "http://www.w3.org/Graphics/SVG/1.1/DTD/svg11.dtd">
<svg
        class="icon" viewBox="0 0 1024 1024" version="1.1" xmlns="http://www.w3.org/2000/svg" width="200" height="200"><path d="M512 51.2a460.8 460.8 0 1 1 0 921.6 460.8 460.8 0 0 1 0-921.6zM302.6432 801.6384a335.0528 335.0528 0 0 0-14.4384 35.5328A394.9568 394.9568 0 0 0 512 906.9568a398.8992 398.8992 0 0 0 222.5152-68.4544c-3.9424-10.5472-7.936-21.0432-12.544-30.9248a235.6736 235.6736 0 0 0-419.328-5.9392z m484.5056-7.2192l3.328-0.6656a394.9568 394.9568 0 1 0-551.68 0c2.6112-8.192 5.9392-16.128 9.8816-23.7056a300.8512 300.8512 0 0 1 531.2512 6.6048c3.2768 5.888 7.2192 12.4928 7.2192 17.7664zM347.4432 413.184a164.5568 164.5568 0 1 0 329.1136 0 164.5568 164.5568 0 0 0-329.1136 0zM512 512a98.7648 98.7648 0 1 1 0-197.4784A98.7648 98.7648 0 0 1 512 512z"
                                                                                                                             fill="#065fd4"></path></svg>
